<?xml version="1.0" encoding="UTF-8"?>
<!DOCTYPE svg PUBLIC "-//W3C//DTD SVG 1.1//EN" "http://www.w3.org/Graphics/SVG/1.1/DTD/svg11.dtd">
<svg xmlns="http://www.w3.org/2000/svg" style="background: transparent; background-color: transparent; color-scheme: light dark;" xmlns:xlink="http://www.w3.org/1999/xlink" version="1.1" width="130px" height="130px" viewBox="0 0 130 130"><defs/><g><g data-cell-id="0"><g data-cell-id="1"><g data-cell-id="VLvJoNHm-4_UI-aepJoI-1"><g><rect x="5" y="5" width="120" height="120" fill="none" stroke="none" pointer-events="all"/><path d="M 105.91 108.47 C 105.91 108.56 105.84 108.64 105.74 108.64 L 21.36 108.47 L 21.53 24.09 L 105.91 24.25 Z M 125 29.55 L 125 24.09 L 111.36 24.09 L 111.36 24.25 C 111.36 21.16 108.84 18.64 105.74 18.64 L 105.91 18.64 L 105.91 5 L 100.45 5 L 100.45 18.64 L 86.82 18.64 L 86.82 5 L 81.36 5 L 81.36 18.64 L 67.73 18.64 L 67.73 5 L 62.27 5 L 62.27 18.64 L 48.64 18.64 L 48.64 5 L 43.18 5 L 43.18 18.64 L 29.55 18.64 L 29.55 5 L 24.09 5 L 24.09 18.64 L 21.53 18.64 C 18.49 18.64 16.02 21.07 15.93 24.09 L 5 24.09 L 5 29.55 L 15.91 29.55 L 15.91 43.18 L 5 43.18 L 5 48.64 L 15.91 48.64 L 15.91 62.27 L 5 62.27 L 5 67.73 L 15.91 67.73 L 15.91 81.36 L 5 81.36 L 5 86.82 L 15.91 86.82 L 15.91 100.45 L 5 100.45 L 5 105.91 L 15.91 105.91 L 15.91 108.47 C 15.91 111.57 18.43 114.09 21.53 114.09 L 24.09 114.09 L 24.09 125 L 29.55 125 L 29.55 114.09 L 43.18 114.09 L 43.18 125 L 48.64 125 L 48.64 114.09 L 62.27 114.09 L 62.27 125 L 67.73 125 L 67.73 114.09 L 81.36 114.09 L 81.36 125 L 86.82 125 L 86.82 114.09 L 100.45 114.09 L 100.45 125 L 105.91 125 L 105.91 114.07 C 108.93 113.98 111.36 111.51 111.36 108.47 L 111.36 105.91 L 125 105.91 L 125 100.45 L 111.36 100.45 L 111.36 86.82 L 125 86.82 L 125 81.36 L 111.36 81.36 L 111.36 67.73 L 125 67.73 L 125 62.27 L 111.36 62.27 L 111.36 48.64 L 125 48.64 L 125 43.18 L 111.36 43.18 L 111.36 29.55 Z M 56.11 78.87 C 56.67 79.2 57.22 79.54 57.77 79.86 C 58.33 80.19 58.9 80.49 59.46 80.8 C 58.49 81.18 57.55 81.53 56.62 81.85 C 56.44 80.89 56.27 79.89 56.11 78.87 Z M 47.42 65.92 C 48.18 65.27 48.96 64.63 49.77 63.99 C 49.75 64.63 49.73 65.29 49.73 65.94 C 49.73 66.58 49.75 67.23 49.77 67.87 C 48.95 67.22 48.16 66.57 47.42 65.92 Z M 36.95 49.27 C 38.21 47.09 43.63 46.55 51.39 48.47 C 50.85 51.16 50.46 54 50.18 56.88 C 47.77 58.59 45.49 60.35 43.44 62.15 C 37.92 56.4 35.69 51.45 36.95 49.27 Z M 59.46 51.08 C 58.9 51.39 58.33 51.69 57.77 52.01 C 57.21 52.34 56.67 52.68 56.12 53.01 C 56.27 51.98 56.44 50.98 56.62 50.03 C 57.55 50.35 58.49 50.7 59.46 51.08 Z M 75.01 50 C 75.2 50.98 75.37 51.99 75.52 53.02 C 74.97 52.68 74.42 52.34 73.85 52.01 C 73.29 51.69 72.71 51.38 72.14 51.07 C 73.11 50.68 74.07 50.33 75.01 50 Z M 83.63 47.7 C 89.32 46.73 93.56 47.34 94.67 49.27 C 95.79 51.21 94.2 55.18 90.51 59.63 C 89.81 60.47 89.03 61.32 88.21 62.17 C 86.15 60.37 83.88 58.61 81.46 56.9 C 81.19 53.95 80.8 51.1 80.27 48.42 C 81.42 48.14 82.54 47.89 83.63 47.7 Z M 81.89 65.94 C 81.89 65.28 81.87 64.63 81.86 63.98 C 82.67 64.63 83.46 65.28 84.22 65.94 C 83.46 66.6 82.67 67.24 81.85 67.89 C 81.87 67.24 81.89 66.59 81.89 65.94 Z M 60.5 75.14 C 58.69 74.09 57 73.03 55.39 71.95 C 55.27 70.02 55.18 68.03 55.18 65.94 C 55.18 63.84 55.27 61.85 55.39 59.92 C 57.03 58.82 58.73 57.76 60.5 56.74 C 62.27 55.72 64.04 54.78 65.81 53.9 C 67.54 54.76 69.31 55.69 71.13 56.74 C 72.9 57.76 74.59 58.83 76.24 59.92 C 76.36 61.89 76.44 63.89 76.44 65.94 C 76.44 68.03 76.35 70.03 76.23 71.96 C 74.59 73.05 72.89 74.12 71.13 75.14 C 69.31 76.19 67.54 77.11 65.8 77.97 C 64.04 77.1 62.26 76.16 60.5 75.14 Z M 74.99 81.87 C 74.05 81.54 73.09 81.19 72.13 80.8 C 72.7 80.49 73.29 80.19 73.85 79.86 C 74.41 79.54 74.95 79.2 75.51 78.87 C 75.35 79.9 75.18 80.91 74.99 81.87 Z M 65.81 99.27 C 63.29 99.27 60.11 94.85 57.89 87.17 C 60.51 86.28 63.16 85.21 65.8 84.01 C 68.48 85.24 71.14 86.33 73.72 87.21 C 71.5 94.86 68.33 99.27 65.81 99.27 Z M 32.63 75.27 C 30.33 80.17 31.14 83.44 32.22 85.33 C 34.14 88.64 38.05 90.06 43.04 90.06 C 45.94 90.06 49.22 89.54 52.67 88.68 C 55.33 97.99 59.76 104.72 65.81 104.72 C 71.85 104.72 76.27 98.02 78.94 88.74 C 80.17 89.05 81.4 89.32 82.57 89.53 L 83.5 84.15 C 82.44 83.97 81.34 83.72 80.23 83.44 C 80.77 80.73 81.16 77.89 81.44 74.99 C 83.86 73.28 86.15 71.51 88.21 69.7 C 89.03 70.55 89.81 71.4 90.51 72.25 C 94.2 76.69 95.79 80.66 94.67 82.6 C 93.98 83.81 92.19 84.29 90.8 84.48 L 91.56 89.89 C 96.24 89.23 98.41 87.04 99.4 85.33 C 101.79 81.18 100.13 75.3 94.71 68.77 C 93.93 67.83 93.06 66.88 92.15 65.94 C 93.06 64.99 93.93 64.05 94.71 63.11 C 100.13 56.58 101.79 50.7 99.4 46.55 C 97 42.4 91.08 40.9 82.71 42.33 C 81.51 42.53 80.25 42.81 78.98 43.13 C 78.61 41.87 78.23 40.63 77.8 39.49 L 72.69 41.38 C 73.08 42.42 73.42 43.52 73.75 44.66 C 71.16 45.54 68.48 46.63 65.79 47.87 C 63.15 46.67 60.5 45.6 57.89 44.71 C 60.11 37.03 63.29 32.61 65.81 32.61 C 67.17 32.61 68.46 33.87 69.3 34.92 L 73.56 31.52 C 70.68 27.91 67.76 27.16 65.81 27.16 C 59.76 27.16 55.33 33.88 52.67 43.18 C 43.29 40.84 35.25 41.31 32.22 46.55 C 29.2 51.78 32.8 58.96 39.5 65.91 C 38.62 66.82 37.77 67.74 37.01 68.65 L 41.2 72.15 C 41.88 71.32 42.65 70.5 43.45 69.67 C 45.53 71.5 47.8 73.27 50.17 74.97 C 50.45 77.86 50.85 80.7 51.39 83.41 C 43.62 85.33 38.21 84.78 36.95 82.6 C 36.12 81.16 36.98 78.85 37.57 77.6 Z" fill="#0080f0" stroke="none" pointer-events="all" style="fill: rgb(0, 128, 240);"/></g></g></g></g></g></svg>